<?xml version="1.0" encoding="utf-8"?><svg xmlns="http://www.w3.org/2000/svg" xmlns:xlink="http://www.w3.org/1999/xlink"><symbol fill="none" viewBox="0 0 7 11" id="arrow-p" xmlns="http://www.w3.org/2000/svg"><path d="M6.833 5.219 1.913.322a.406.406 0 0 0-.57 0L.678.977a.394.394 0 0 0 0 .562L4.65 5.5.679 9.46a.394.394 0 0 0 0 .563l.663.655a.406.406 0 0 0 .57 0l4.92-4.897a.394.394 0 0 0 0-.562Z" fill="#562708"/></symbol><symbol fill="none" viewBox="0 0 7 12" id="arrow-porg" xmlns="http://www.w3.org/2000/svg"><g clip-path="url(#ba)"><path d="M6.833 5.715 1.913.755a.403.403 0 0 0-.57 0l-.664.663a.403.403 0 0 0 0 .57L4.65 6 .679 10.012a.403.403 0 0 0 0 .57l.663.664a.402.402 0 0 0 .57 0l4.92-4.961a.403.403 0 0 0 0-.57Z" fill="#56242D"/></g><defs><clipPath id="ba"><path fill="#fff" d="M0 0h7v12H0z"/></clipPath></defs></symbol><symbol fill="none" viewBox="0 0 14 1" id="line" xmlns="http://www.w3.org/2000/svg"><path stroke="#fff" d="M0 .5h14"/></symbol></svg>